<?xml version="1.0"?><svg width="793.7007866666665" height="1122.5196799999999" xmlns="http://www.w3.org/2000/svg">
 <title>Three Hearts</title>
 <g>
  <title>Layer 1</title>
  <g transform="rotate(-19.6955 324.978 551.8)" id="svg_1">
   <path d="m216.416,340.145996c-66.240005,0 -120,53.76001 -120,120c0,134.755005 135.932999,170.086975 228.561996,303.307983c87.574005,-132.402954 228.563019,-172.85498 228.563019,-303.307983c0,-66.23999 -53.76001,-120 -120.000031,-120c-48.047974,0 -89.401978,28.369995 -108.562988,69.187012c-19.161011,-40.817017 -60.514008,-69.187012 -108.561996,-69.187012z" id="path7" stroke-miterlimit="4" stroke-width="18.700001" stroke="#000000" fill="#ff0000"/>
   <path d="m216,354.593994c-57.960007,0 -105,47.040009 -105,105c0,117.910034 118.919006,148.838013 199.968994,265.406006c6.559998,-9.91803 -139.968994,-145.526978 -139.968994,-245.406006c0,-57.959991 47.039993,-105 105,-105c0.505005,0 0.997009,0.054993 1.5,0.062012c-17.276001,-12.583008 -38.494003,-20.062012 -61.5,-20.062012z" id="path220" stroke-miterlimit="4" stroke-width="18.700001" fill-opacity="0.64557" fill="#e6e6e6"/>
  </g>
  <g id="svg_3" transform="rotate(-19.1729 615.743 330.789)">
   <path id="svg_4" d="m586.756348,266.119476c-17.686096,0 -32.040405,16.426178 -32.040405,36.665344c0,41.173737 36.294922,51.968964 61.027222,92.673981c23.382813,-40.454895 61.027588,-52.815277 61.027588,-92.673981c0,-20.239166 -14.354248,-36.665344 -32.040833,-36.665344c-12.829163,0 -23.870728,8.668091 -28.986755,21.139771c-5.116028,-12.47168 -16.157715,-21.139771 -28.986816,-21.139771z" stroke-miterlimit="4" stroke-width="18.700001" stroke="#000000" fill="#ff0000"/>
   <path id="svg_5" d="m586.645691,270.533325c-15.475769,0 -28.03595,14.373474 -28.03595,32.082489c0,36.026947 31.752075,45.476959 53.3927,81.093506c1.751587,-3.030396 -37.37207,-44.465027 -37.37207,-74.982391c0,-17.709686 12.559692,-32.082489 28.0354,-32.082489c0.134766,0 0.266113,0.016754 0.400391,0.01944c-4.612549,-3.845184 -10.278259,-6.130554 -16.420471,-6.130554z" stroke-miterlimit="4" stroke-width="18.700001" fill-opacity="0.64557" fill="#e6e6e6"/>
  </g>
  <g id="svg_6" transform="rotate(-156.391 589.013 201.166)">
   <path id="svg_7" d="m528.596008,514.927979c-14.897034,0 -26.988037,25.986023 -26.988037,58.005005c0,65.138 30.572021,82.216003 51.404053,146.613037c19.695984,-64.001038 51.406006,-83.554993 51.406006,-146.613037c0,-32.018982 -12.091003,-58.005005 -26.989014,-58.005005c-10.80603,0 -20.106995,13.713013 -24.416992,33.442993c-4.309021,-19.72998 -13.609009,-33.442993 -24.416016,-33.442993z" stroke-miterlimit="4" stroke-width="18.700001" stroke="#000000" fill="#ff0000"/>
   <path id="svg_8" d="m528.502991,521.911011c-13.036011,0 -23.61499,22.739014 -23.61499,50.755005c0,56.994995 26.744995,71.945984 44.973999,128.291992c1.474976,-4.794006 -31.47998,-70.345032 -31.47998,-118.624023c0,-28.016968 10.579956,-50.755005 23.61499,-50.755005c0.114014,0 0.223999,0.027039 0.336975,0.030029c-3.88501,-6.082031 -8.656982,-9.697998 -13.830994,-9.697998z" stroke-miterlimit="4" stroke-width="18.700001" fill-opacity="0.64557" fill="#e6e6e6"/>
  </g>
  <g id="svg_13" transform="rotate(-19.6955 1029.6 643.96)">
   <path id="svg_14" d="m1005.182129,577.323486c-14.897705,0 -26.988647,16.925842 -26.988647,37.780823c0,42.42627 30.572021,53.550232 51.404785,95.49353c19.695923,-41.685791 51.405151,-54.421692 51.405151,-95.49353c0,-20.85498 -12.090942,-37.780823 -26.988647,-37.780823c-10.806274,0 -20.107056,8.932007 -24.416504,21.782837c-4.309326,-12.85083 -13.609863,-21.782837 -24.416138,-21.782837z" stroke-miterlimit="4" stroke-width="18.700001" stroke="#000000" fill="#ff0000"/>
   <path id="svg_15" d="m1005.088623,581.872253c-13.035522,0 -23.615112,14.81012 -23.615112,33.058167c0,37.122925 26.745361,46.860413 44.974121,83.560547c1.475342,-3.122559 -31.479736,-45.817688 -31.479736,-77.263733c0,-18.248047 10.57959,-33.058167 23.61499,-33.058167c0.113525,0 0.224304,0.017395 0.337341,0.019653c-3.885376,-3.961731 -8.657532,-6.316528 -13.831604,-6.316467z" stroke-miterlimit="4" stroke-width="18.700001" fill-opacity="0.64557" fill="#e6e6e6"/>
  </g>
  <g id="svg_16" transform="rotate(24.3045 624.299 589.48)">
   <path id="svg_17" d="m578.307007,488.434326c-28.061646,0 -50.836975,25.665833 -50.836975,57.289307c0,64.333618 57.587463,81.201111 96.828918,144.802307c37.100525,-63.210388 96.829712,-82.523438 96.829712,-144.802307c0,-31.623474 -22.775269,-57.289307 -50.837769,-57.289307c-20.355286,0 -37.874512,13.543823 -45.991943,33.030701c-8.117249,-19.486877 -25.636597,-33.030701 -45.991943,-33.030701z" stroke-miterlimit="4" stroke-width="18.700001" stroke="#000000" fill="#ff0000"/>
   <path id="svg_18" d="m578.13147,495.330872c-24.554688,0 -44.483337,22.458557 -44.483337,50.128662c0,56.291748 50.379639,71.057434 84.715759,126.707886c2.779053,-4.734924 -59.296509,-69.476196 -59.296509,-117.159241c0,-27.671326 19.927795,-50.128662 44.482361,-50.128662c0.213928,0 0.422302,0.026184 0.635315,0.030273c-7.318481,-6.007996 -16.308105,-9.578918 -26.053589,-9.578918z" stroke-miterlimit="4" stroke-width="18.700001" fill-opacity="0.64557" fill="#e6e6e6"/>
  </g>
 </g>

</svg>